<svg xmlns="http://www.w3.org/2000/svg" width="58" height="58" viewBox="0 0 58 58">
    <g fill="none" fill-rule="evenodd">
        <g stroke="#ADADAD" stroke-width="2">
            <g>
                <path d="M37.343 40.549c4.111-3.23 7.762-7.086 10.242-11.571l.109-.2.195-.367c.722-1.434 1.127-3.055 1.127-4.77C49.016 17.764 44.252 13 38.375 13c-3.976 0-7.448 2.184-9.275 5.415-.032.056-.051.099-.095.099-.049 0-.059-.04-.09-.094C27.09 15.184 23.62 13 19.641 13 13.764 13 9 17.764 9 23.641c0 1.509.314 2.945.881 4.246l.018.1s4.196 9.742 18.735 17.835l.374.169.347-.169c2.727-1.518 5.446-3.276 7.988-5.273z" transform="translate(-366 -1047) translate(366 1047)"/>
            </g>
        </g>
    </g>
</svg>
