<svg xmlns="http://www.w3.org/2000/svg" width="58" height="58" viewBox="0 0 58 58">
    <g fill="none" fill-rule="evenodd">
        <g stroke="#ADADAD" stroke-width="2">
            <g>
                <path d="M48.95 42.115v4.833c0 1.28-1.038 2.32-2.32 2.32h-9.798c-1.281 0-2.32-1.04-2.32-2.32v-6.17c0-1.28-1.038-2.32-2.32-2.32H24.88c-1.282 0-2.32 1.04-2.32 2.32v6.17c0 1.28-1.039 2.32-2.32 2.32h-9.8c-1.281 0-2.32-1.04-2.32-2.32V27.95c0-.99.421-1.933 1.159-2.593l17.71-15.852c.88-.788 2.213-.788 3.094 0l17.709 15.852c.737.66 1.159 1.603 1.159 2.593v14.165z" transform="translate(-66 -1047) translate(66 1047)"/>
            </g>
        </g>
    </g>
</svg>
