<svg xmlns="http://www.w3.org/2000/svg" width="28" height="28" viewBox="0 0 28 28">
    <g fill="none" fill-rule="evenodd">
        <g fill="#FAE100">
            <g>
                <g>
                    <path d="M11.847 11.103L10.745 14.533 12.932 14.533 11.871 11.103z" transform="translate(-179 -997) translate(179 997) translate(4 5)"/>
                    <path d="M28.534 17.621c-.188.145-.416.218-.68.218-.19 0-.345-.033-.465-.1-.121-.078-.245-.207-.368-.407l-2.152-3.466-1.026 1.07.01 1.934c-.003.291-.087.528-.256.704-.17.178-.4.265-.685.265-.237 0-.436-.066-.6-.19-.164-.133-.268-.309-.313-.53-.015-.08-.02-.162-.017-.25l-.002-6.907c.002-.289.084-.525.254-.704.168-.176.397-.265.684-.265.236 0 .435.064.597.194.167.131.27.307.314.528.016.082.024.165.019.247l.005 2.83 2.935-3.374c.132-.144.249-.249.355-.32.109-.07.236-.105.39-.105.206 0 .391.057.559.174.168.11.27.262.31.456l.014.071c-.002.028 0 .058.005.08-.002.134-.03.253-.087.355-.057.105-.13.208-.221.312l-1.92 2.096 2.27 3.597.069.109c.154.244.244.423.269.542.002.007.005.03.013.059v.06c0 .334-.092.572-.28.717zm-7.018-.147c-.183.14-.415.214-.695.214h-3.897c-.29 0-.524-.058-.703-.18-.182-.115-.298-.308-.354-.576-.02-.113-.035-.24-.041-.382l.003-6.588c0-.289.086-.525.256-.704.167-.176.396-.265.685-.265.235 0 .436.064.598.194.16.131.267.307.313.528.016.082.021.165.016.247l-.002 6.089h3.121c.25 0 .462.053.631.165.17.114.28.271.318.476.013.052.022.116.027.178 0 .258-.092.462-.276.604zm-6.241.118c-.171.169-.377.247-.62.247-.432 0-.712-.178-.84-.533l-.482-1.423h-3.008l-.485 1.423c-.117.355-.396.533-.837.533-.218 0-.404-.054-.551-.17-.148-.112-.245-.276-.287-.483-.013-.058-.018-.125-.018-.198-.003-.095.011-.21.052-.343.034-.134.078-.27.126-.402l2.416-6.656c.075-.214.19-.366.34-.457.148-.09.34-.137.572-.137h.448c.243 0 .446.05.611.148.164.096.295.287.386.564l2.256 6.538c.073.202.122.376.152.52.018.097.03.172.033.225-.004.24-.091.437-.264.604zm-7.716-.722c-.001.291-.086.528-.256.704-.167.178-.399.265-.684.265-.236 0-.435-.066-.598-.19-.165-.133-.268-.309-.315-.53-.016-.08-.02-.162-.016-.25l.004-6.083H3.928c-.243 0-.453-.06-.627-.168-.176-.108-.283-.268-.323-.473-.01-.055-.02-.118-.027-.183 0-.257.093-.46.277-.6.183-.141.415-.217.695-.217h5.4c.243 0 .452.058.625.167.177.11.285.266.328.474.008.056.014.115.011.176 0 .267-.09.464-.27.611-.179.14-.409.213-.69.213H7.56L7.56 16.87zM16.226 0C7.265 0 0 5.736 0 12.816c0 4.553 3.01 8.54 7.53 10.822L6 29.345c-.058.173-.011.362.116.488.088.088.204.136.331.136.098 0 .194-.042.282-.109l6.575-4.44c.954.137 1.929.213 2.922.213 8.96 0 16.226-5.737 16.226-12.817S25.185 0 16.226 0z" transform="translate(-179 -997) translate(179 997) translate(4 5)"/>
                </g>
            </g>
        </g>
    </g>
</svg>
