<svg xmlns="http://www.w3.org/2000/svg" width="100" height="100" viewBox="0 0 100 100">
    <g fill="none" fill-rule="evenodd">
        <g stroke="#FFF" stroke-width="5">
            <g>
                <g>
                    <path d="M46.503 44.818c-7.392 7.123-19.375 7.123-26.766 0-7.39-7.123-7.39-18.672 0-25.795 7.39-7.124 19.374-7.124 26.766 0 7.39 7.123 7.39 18.672 0 25.795zM54.81 7.632C42.46-2.547 23.768-2.543 11.42 7.639c-13.375 11.03-15 29.556-4.883 42.413l22.831 30.203c1.84 2.433 5.662 2.433 7.502 0l22.835-30.2c10.118-12.859 8.487-31.394-4.895-42.423z" transform="translate(-270 -224) translate(270 224) translate(17 4)"/>
                </g>
            </g>
        </g>
    </g>
</svg>
