<svg id="Group_12299" data-name="Group 12299" xmlns="http://www.w3.org/2000/svg" width="17.498" height="21.464" viewBox="0 0 17.498 21.464">
  <path id="Path_20673" data-name="Path 20673" d="M297.832,119.673a4.594,4.594,0,0,1,3.371-1.868,4.583,4.583,0,0,1-1.109,3.431,3.625,3.625,0,0,1-3.2,1.5A3.986,3.986,0,0,1,297.832,119.673Z" transform="translate(-288.178 -117.805)" fill="#34413d" fill-rule="evenodd"/>
  <path id="Path_20674" data-name="Path 20674" d="M59.493,265.18c.726,0,2.072-1,3.825-1a4.79,4.79,0,0,1,4.2,2.147A4.661,4.661,0,0,0,65.2,270.4a4.779,4.779,0,0,0,2.892,4.368s-2.021,5.689-4.752,5.689c-1.254,0-2.229-.845-3.55-.845-1.346,0-2.683.877-3.553.877-2.493,0-5.643-5.4-5.643-9.735,0-4.268,2.666-6.507,5.167-6.507C57.386,264.243,58.648,265.18,59.493,265.18Z" transform="translate(-50.594 -259.022)" fill="#34413d" fill-rule="evenodd"/>
</svg>
