<?xml version='1.0' encoding='utf-8'?>
<svg xmlns="http://www.w3.org/2000/svg" id="svg2719" version="1.1" viewBox="0 0 264.58333 190.83394" height="721.26208" width="1000"> <defs id="defs2713"/> <metadata id="metadata2716"> </metadata> <g transform="translate(-231.54713,-215.84555)" id="layer1"> <g transform="matrix(2.0009368,0,0,2.0009368,-1658.4136,-10722.948)" id="g2867"> <path style="fill:#5599ff;fill-opacity:1;fill-rule:evenodd;stroke:none;stroke-width:0.19322439px;stroke-linecap:butt;stroke-linejoin:miter;stroke-opacity:1" d="m 978.95834,5562.2084 v -42.3334 h 26.45836 v 42.3334 z" id="path2857"/> <path id="path2859" d="m 1010.7083,5562.2084 v -52.9167 h 26.4584 v 52.9167 z" style="fill:#5599ff;fill-opacity:1;fill-rule:evenodd;stroke:none;stroke-width:0.21603146px;stroke-linecap:butt;stroke-linejoin:miter;stroke-opacity:1"/> <path style="fill:#5599ff;fill-opacity:1;fill-rule:evenodd;stroke:none;stroke-width:0.23665056px;stroke-linecap:butt;stroke-linejoin:miter;stroke-opacity:1" d="m 1042.4583,5562.2084 v -63.5 h 26.4584 v 63.5 z" id="path2861"/> <path id="path2863" d="m 947.20834,5562.2084 v -31.75 h 26.45836 v 31.75 z" style="fill:#5599ff;fill-opacity:1;fill-rule:evenodd;stroke:none;stroke-width:0.16733719px;stroke-linecap:butt;stroke-linejoin:miter;stroke-opacity:1"/> <path id="path2865" transform="scale(0.26458333)" d="m 4011.668,20662.062 a 7.8996132,7.8996132 0 0 0 -7.4668,10.43 l 5.0429,14.922 -432.4082,144.131 a 10.002756,10.002756 0 1 0 6.3262,18.978 l 432.4824,-144.162 4.9082,14.528 a 7.8996132,7.8996132 0 0 0 13.4141,2.689 l 16.8711,-19.182 16.8691,-19.179 a 7.8996132,7.8996132 0 0 0 -0.8945,-11.299 v 0 a 7.8996132,7.8996132 0 0 0 -0.6289,-0.477 7.8996132,7.8996132 0 0 0 -2.8554,-1.189 l -25.045,-5.02 -25.0449,-5.019 a 7.8996132,7.8996132 0 0 0 -1.5683,-0.155 z" style="color:#000000;font-style:normal;font-variant:normal;font-weight:normal;font-stretch:normal;font-size:medium;line-height:normal;font-family:sans-serif;font-variant-ligatures:normal;font-variant-position:normal;font-variant-caps:normal;font-variant-numeric:normal;font-variant-alternates:normal;font-feature-settings:normal;text-indent:0;text-align:start;text-decoration:none;text-decoration-line:none;text-decoration-style:solid;text-decoration-color:#000000;letter-spacing:normal;word-spacing:normal;text-transform:none;writing-mode:lr-tb;direction:ltr;text-orientation:mixed;dominant-baseline:auto;baseline-shift:baseline;text-anchor:start;white-space:normal;shape-padding:0;clip-rule:nonzero;display:inline;overflow:visible;visibility:visible;opacity:1;isolation:auto;mix-blend-mode:normal;color-interpolation:sRGB;color-interpolation-filters:linearRGB;solid-color:#000000;solid-opacity:1;vector-effect:none;fill:#5599ff;fill-opacity:1;fill-rule:evenodd;stroke:none;stroke-width:20;stroke-linecap:round;stroke-linejoin:miter;stroke-miterlimit:4;stroke-dasharray:none;stroke-dashoffset:0;stroke-opacity:1;color-rendering:auto;image-rendering:auto;shape-rendering:auto;text-rendering:auto;enable-background:accumulate"/> </g> </g> </svg>