<svg width="82" height="100" viewBox="0 0 82 100" fill="none" xmlns="http://www.w3.org/2000/svg">
<path fill-rule="evenodd" clip-rule="evenodd" d="M29 24.9896C29 18.1715 34.4444 12.593 41.222 12.593C47.9997 12.593 53.4441 18.1715 53.4441 24.9896C53.4441 31.8077 47.9997 37.3861 41.222 37.3861C34.4444 37.3861 29 31.8077 29 24.9896Z" fill="url(#paint0_linear)"/>
<path fill-rule="evenodd" clip-rule="evenodd" d="M36.2475 22.5182C36.0612 21.8937 36.5424 21.2698 37.2103 21.2698C37.667 21.2698 38.066 21.5703 38.1807 22.0008L39.1293 25.56L40.7478 21.6162C40.8244 21.4296 41.0099 21.3072 41.2163 21.3072C41.4237 21.3072 41.6099 21.4308 41.6858 21.6188L43.2751 25.5569L44.2426 22.0013C44.36 21.5701 44.7608 21.2698 45.2189 21.2698C45.8934 21.2698 46.3784 21.9012 46.1877 22.5312L45.7482 23.9836H46.301C46.8712 23.9836 47.3334 24.4336 47.3334 24.9887C47.3334 25.5439 46.8712 25.9939 46.301 25.9939H45.1392L44.5731 27.8646C44.4218 28.3645 43.9505 28.7077 43.4152 28.7077C42.909 28.7077 42.4566 28.4002 42.2822 27.9375L41.2188 25.1178L40.1316 27.9441C39.955 28.4034 39.5041 28.7077 39.0004 28.7077C38.4631 28.7077 37.9904 28.3622 37.8404 27.8598L37.2833 25.9939H36.1437C35.5735 25.9939 35.1113 25.5439 35.1113 24.9887C35.1113 24.4336 35.5735 23.9836 36.1437 23.9836H36.6844L36.2475 22.5182Z" fill="#FFF6DB"/>
<path fill-rule="evenodd" clip-rule="evenodd" d="M57 12.3966C57 5.57845 62.4444 0 69.222 0C75.9997 0 81.4441 5.57845 81.4441 12.3966C81.4441 19.2147 75.9997 24.7931 69.222 24.7931C62.4444 24.7931 57 19.2147 57 12.3966Z" fill="url(#paint1_linear)"/>
<path fill-rule="evenodd" clip-rule="evenodd" d="M64.2475 9.92322C64.0612 9.2987 64.5424 8.6748 65.2103 8.6748C65.667 8.6748 66.066 8.97536 66.1807 9.4058L67.1293 12.965L68.7478 9.02119C68.8244 8.83462 69.0099 8.71226 69.2163 8.71226C69.4237 8.71226 69.6099 8.83586 69.6858 9.02381L71.2751 12.9619L72.2426 9.40636C72.36 8.97511 72.7608 8.6748 73.2189 8.6748C73.8934 8.6748 74.3784 9.30624 74.1877 9.93622L73.7482 11.3886H74.301C74.8712 11.3886 75.3334 11.8386 75.3334 12.3938C75.3334 12.9489 74.8712 13.399 74.301 13.399H73.1392L72.5731 15.2697C72.4218 15.7695 71.9505 16.1127 71.4152 16.1127C70.909 16.1127 70.4566 15.8052 70.2822 15.3425L69.2188 12.5228L68.1316 15.3491C67.955 15.8084 67.5041 16.1127 67.0004 16.1127C66.4631 16.1127 65.9904 15.7672 65.8404 15.2649L65.2833 13.399H64.1437C63.5735 13.399 63.1113 12.9489 63.1113 12.3938C63.1113 11.8386 63.5735 11.3886 64.1437 11.3886H64.6844L64.2475 9.92322Z" fill="#FFF6DB"/>
<path d="M24.6109 27.8448L26.3405 32.1838C26.3541 32.2181 26.3661 32.2526 26.3765 32.2874C30.9011 30.815 35.81 30.0086 40.9392 30.0086C45.8641 30.0086 50.5858 30.752 54.9593 32.1146L56.6613 27.8448C57.0427 26.8881 58.3603 26.8093 58.852 27.7138L63.1351 35.5935C74.4135 41.8259 81.8784 52.6699 81.8784 65.0043C81.8784 84.3319 63.5493 100 40.9392 100C18.3291 100 0 84.3319 0 65.0043C0 52.9926 7.07945 42.3942 17.8662 36.0919L22.4203 27.7138C22.9119 26.8093 24.2295 26.8881 24.6109 27.8448Z" fill="#FFE99F"/>
<path fill-rule="evenodd" clip-rule="evenodd" d="M35.3788 48.8555C35.3788 49.5922 34.7831 50.1895 34.0483 50.1895C33.3135 50.1895 32.7178 49.5922 32.7178 48.8555C32.7178 48.1187 33.3135 47.5215 34.0483 47.5215C34.7831 47.5215 35.3788 48.1187 35.3788 48.8555ZM45.4267 63.4985C44.6771 63.4985 44.0695 62.0638 44.0695 60.294C44.0695 58.5243 44.6771 57.0896 45.4267 57.0896C46.1764 57.0896 46.7839 58.5243 46.7839 60.294C46.7839 62.0638 46.1764 63.4985 45.4267 63.4985ZM37.5274 63.4985C36.7779 63.4985 36.1703 62.0638 36.1703 60.294C36.1703 58.5243 36.7779 57.0896 37.5274 57.0896C38.277 57.0896 38.8846 58.5243 38.8846 60.294C38.8846 62.0638 38.277 63.4985 37.5274 63.4985ZM41.3758 51.4506C35.4005 51.4506 30.5566 55.4105 30.5566 60.2953C30.5566 65.1802 35.4005 69.1401 41.3758 69.1401C47.351 69.1401 52.195 65.1802 52.195 60.2953C52.195 55.4105 47.351 51.4506 41.3758 51.4506ZM48.6486 50.1894C49.3833 50.1894 49.979 49.5922 49.979 48.8555C49.979 48.1187 49.3833 47.5215 48.6486 47.5215C47.9137 47.5215 47.318 48.1187 47.318 48.8555C47.318 49.5922 47.9137 50.1894 48.6486 50.1894Z" fill="#0B2243"/>
<defs>
<linearGradient id="paint0_linear" x1="41.222" y1="22.3798" x2="41.222" y2="37.3861" gradientUnits="userSpaceOnUse">
<stop stop-color="#FFCB2E"/>
<stop offset="1" stop-color="#FFB967"/>
</linearGradient>
<linearGradient id="paint1_linear" x1="69.222" y1="9.78676" x2="69.222" y2="24.7931" gradientUnits="userSpaceOnUse">
<stop stop-color="#FFCB2E"/>
<stop offset="1" stop-color="#FFB967"/>
</linearGradient>
</defs>
</svg>
