<svg width="18" height="18" viewBox="0 0 18 18" fill="none" xmlns="http://www.w3.org/2000/svg">
<path d="M12 15.5C9.49 15.5 7.32 14.08 6.24 12H12V10H5.58C5.53 9.67 5.5 9.34 5.5 9C5.5 8.66 5.53 8.33 5.58 8H12V6H6.24C7.32 3.92 9.5 2.5 12 2.5C13.61 2.5 15.09 3.09 16.23 4.07L18 2.3C16.41 0.87 14.3 0 12 0C8.08 0 4.76 2.51 3.52 6H0V8H3.06C3.02 8.33 3 8.66 3 9C3 9.34 3.02 9.67 3.06 10H0V12H3.52C4.76 15.49 8.08 18 12 18C14.31 18 16.41 17.13 18 15.7L16.22 13.93C15.09 14.91 13.62 15.5 12 15.5Z" fill="#FFD600"/>
</svg>
