<svg width="24" height="24" viewBox="0 0 24 24" fill="none" xmlns="http://www.w3.org/2000/svg">
<g clip-path="url(#clip0_141:285)">
<path d="M7.75003 19C7.64673 19.0003 7.54449 18.9792 7.4498 18.9379C7.35512 18.8965 7.27006 18.836 7.20003 18.76L1.20003 12.26C1.07806 12.122 1.01074 11.9442 1.01074 11.76C1.01074 11.5759 1.07806 11.398 1.20003 11.26L7.20003 4.76003C7.26078 4.67202 7.33964 4.59801 7.43133 4.54298C7.52302 4.48794 7.62541 4.45315 7.73165 4.44094C7.83789 4.42873 7.94551 4.43938 8.0473 4.47217C8.14908 4.50496 8.24268 4.55915 8.32181 4.63108C8.40093 4.70301 8.46376 4.79104 8.50608 4.88925C8.5484 4.98746 8.56922 5.09358 8.56716 5.2005C8.5651 5.30741 8.5402 5.41266 8.49413 5.50916C8.44805 5.60566 8.38188 5.6912 8.30003 5.76003L2.77003 11.75L8.30003 17.75C8.39606 17.8574 8.45915 17.9901 8.48176 18.1323C8.50438 18.2746 8.48556 18.4203 8.42755 18.5521C8.36955 18.684 8.27481 18.7963 8.15467 18.8757C8.03452 18.9552 7.89405 18.9983 7.75003 19Z" fill="#252563"/>
<path d="M22.75 12.5H1.75C1.55109 12.5 1.36032 12.421 1.21967 12.2803C1.07902 12.1397 1 11.9489 1 11.75C1 11.5511 1.07902 11.3603 1.21967 11.2197C1.36032 11.079 1.55109 11 1.75 11H22.75C22.9489 11 23.1397 11.079 23.2803 11.2197C23.421 11.3603 23.5 11.5511 23.5 11.75C23.5 11.9489 23.421 12.1397 23.2803 12.2803C23.1397 12.421 22.9489 12.5 22.75 12.5Z" fill="#252563"/>
</g>
<defs>
<clipPath id="clip0_141:285">
<rect width="22.5" height="14.5" fill="white" transform="translate(1 4.5)"/>
</clipPath>
</defs>
</svg>
